<svg width="46" height="46" viewBox="0 0 46 46" fill="none" xmlns="http://www.w3.org/2000/svg">
<path id="Polygon 1" d="M20.3212 1.10959C22.0364 0.39913 23.9636 0.399131 25.6788 1.10959L36.5847 5.62696C38.2999 6.33741 39.6626 7.70013 40.373 9.41533L44.8904 20.3212C45.6009 22.0364 45.6009 23.9636 44.8904 25.6788L40.373 36.5847C39.6626 38.2999 38.2999 39.6626 36.5847 40.373L25.6788 44.8904C23.9636 45.6009 22.0364 45.6009 20.3212 44.8904L9.41533 40.373C7.70013 39.6626 6.33741 38.2999 5.62696 36.5847L1.10959 25.6788C0.39913 23.9636 0.399131 22.0364 1.10959 20.3212L5.62696 9.41533C6.33741 7.70013 7.70013 6.33741 9.41533 5.62696L20.3212 1.10959Z" fill="#FF0000"/>
</svg>
